<svg width="1201" height="301" viewBox="0 0 1201 301" fill="none" xmlns="http://www.w3.org/2000/svg">
<path d="M241.169 196.997H220.635C205.343 196.997 192.236 186.922 187.43 172.818L199.008 168.788C202.067 177.967 210.586 184.684 220.635 184.684H241.169C248.378 184.684 254.494 178.415 254.494 170.803C254.494 162.072 245.538 159.833 236.145 158.49L217.139 155.579C204.251 153.788 186.557 149.534 186.557 130.952C186.557 116.624 197.916 104.758 211.897 104.758H232.431C247.722 104.758 260.829 114.833 265.417 128.937L254.057 132.967C250.781 123.788 242.48 117.296 232.431 117.296H211.897C204.688 117.296 198.571 123.34 198.571 130.952C198.571 140.579 210.149 142.37 219.324 143.714L237.455 146.176C251.654 148.191 266.509 154.012 266.509 170.803C266.509 185.355 255.368 196.997 241.169 196.997Z" fill="black"/>
<path d="M371.145 156.028C371.145 178.64 353.232 196.998 331.169 196.998C320.683 196.998 310.635 192.968 303.207 185.356V235.057H291.193V104.983H303.207V116.625C310.635 109.237 320.683 104.983 331.169 104.983C353.232 104.983 371.145 123.565 371.145 146.177V156.028ZM359.13 146.177C359.13 130.281 346.46 117.52 331.169 117.52C315.877 117.52 303.207 130.281 303.207 146.177V156.028C303.207 171.699 315.877 184.684 331.169 184.684C346.46 184.684 359.13 171.699 359.13 156.028V146.177Z" fill="black"/>
<path d="M456.561 196.994V188.262C450.226 193.859 441.924 196.994 433.623 196.994H414.181C400.201 196.994 388.841 185.128 388.841 171.024C388.841 156.695 400.419 144.83 414.181 144.83H443.454C449.57 144.83 456.779 143.934 456.779 136.322C456.779 122.666 445.201 117.516 433.842 117.516H424.23C414.4 117.516 405.662 123.785 402.385 133.188L391.026 129.158C396.05 114.83 409.376 105.203 424.23 105.203H433.842C452.192 105.203 468.794 115.501 468.794 136.322V197.218H456.561V196.994ZM443.235 157.143H413.963C406.754 157.143 400.638 163.412 400.638 171.024C400.638 178.412 406.754 184.68 413.963 184.68H433.405C446.075 184.68 456.342 173.934 456.342 160.949V154.904C452.192 156.695 447.823 157.143 443.235 157.143Z" fill="black"/>
<path d="M555.516 133.864C550.929 124.013 541.099 117.52 530.395 117.52C515.103 117.52 502.433 130.505 502.433 146.177V156.028C502.433 171.699 515.103 184.684 530.395 184.684C541.099 184.684 550.929 178.416 555.516 168.117L566.439 173.49C559.885 187.819 545.905 196.774 530.176 196.774C508.113 196.774 490.2 178.416 490.2 155.804V145.953C490.2 123.341 508.113 104.983 530.176 104.983C545.686 104.983 559.667 113.938 566.439 128.267L555.516 133.864Z" fill="black"/>
<path d="M662.119 157.147H594.4C595.055 172.595 607.289 184.684 622.143 184.684C632.847 184.684 642.677 178.416 647.265 168.117L658.187 173.49C651.634 187.819 637.653 196.774 621.925 196.774C599.861 196.774 581.948 178.416 581.948 155.804V145.953C581.948 123.341 599.861 104.983 621.925 104.983C643.988 104.983 661.901 123.341 661.901 145.953V157.147H662.119ZM622.143 117.52C607.289 117.52 594.837 129.61 594.4 144.834H650.104C649.231 129.834 636.998 117.52 622.143 117.52Z" fill="black"/>
<path d="M776.15 196.994V133.86C776.15 123.562 768.286 117.517 758.893 117.517C750.373 117.517 743.164 124.905 743.164 133.86V197.218H730.931V133.86C730.931 123.562 723.067 117.517 713.674 117.517C704.936 117.517 697.727 124.905 697.727 133.86V197.218H685.712V105.427H697.727V110.577C703.188 106.547 708.431 105.427 714.984 105.427C723.285 105.427 731.586 109.457 736.829 116.174C742.727 108.338 750.81 105.427 759.985 105.427C775.495 105.427 787.946 118.189 787.946 134.084V197.442H776.15V196.994Z" fill="black"/>
<path d="M890.18 157.147H822.461C823.116 172.595 835.349 184.684 850.204 184.684C860.908 184.684 870.738 178.416 875.325 168.117L886.248 173.49C879.694 187.819 865.713 196.774 849.985 196.774C827.922 196.774 810.009 178.416 810.009 155.804V145.953C810.009 123.341 827.922 104.983 849.985 104.983C872.048 104.983 889.961 123.341 889.961 145.953V157.147H890.18ZM850.204 117.52C835.349 117.52 822.897 129.61 822.461 144.834H878.165C877.291 129.834 865.058 117.52 850.204 117.52Z" fill="black"/>
<path d="M963.798 196.997H943.264C927.972 196.997 914.865 186.922 910.059 172.818L921.637 168.788C924.695 177.967 933.215 184.684 943.264 184.684H963.798C971.006 184.684 977.123 178.415 977.123 170.803C977.123 162.072 968.167 159.833 958.773 158.49L939.768 155.579C926.88 153.788 909.186 149.534 909.186 130.952C909.186 116.624 920.545 104.758 934.526 104.758H955.06C970.351 104.758 983.458 114.833 988.045 128.937L976.686 132.967C973.409 123.788 965.108 117.296 955.06 117.296H934.526C927.317 117.296 921.2 123.34 921.2 130.952C921.2 140.579 932.778 142.37 941.953 143.714L960.084 146.176C974.065 147.967 989.138 153.788 989.138 170.579C989.138 185.355 977.997 196.997 963.798 196.997Z" fill="black"/>
<path d="M1081.76 196.996V146.175C1081.76 130.279 1069.09 117.518 1053.8 117.518C1038.51 117.518 1025.84 130.279 1025.84 146.175V196.996H1013.82V65.3542H1025.84V116.847C1033.26 109.459 1043.31 105.205 1053.8 105.205C1075.86 105.205 1093.77 123.563 1093.77 146.175V196.996H1081.76Z" fill="black"/>
<path d="M148.133 191.862L107.897 150.626L148.133 109.24H107.897L148.133 150.626L107.897 191.862H148.133Z" stroke="black" stroke-width="8" stroke-miterlimit="10" stroke-linejoin="bevel"/>
</svg>
