<svg width="1201" height="300" viewBox="0 0 1201 300" fill="none" xmlns="http://www.w3.org/2000/svg">
<path d="M241.169 196.791H220.635C205.343 196.791 192.236 186.717 187.43 172.612L199.008 168.582C202.067 177.761 210.586 184.478 220.635 184.478H241.169C248.378 184.478 254.494 178.209 254.494 170.597C254.494 161.866 245.538 159.627 236.145 158.284L217.139 155.373C204.251 153.582 186.557 149.329 186.557 130.747C186.557 116.418 197.916 104.553 211.897 104.553H232.431C247.722 104.553 260.829 114.627 265.417 128.732L254.057 132.761C250.781 123.582 242.48 117.09 232.431 117.09H211.897C204.688 117.09 198.571 123.135 198.571 130.747C198.571 140.373 210.149 142.164 219.324 143.508L237.455 145.97C251.654 147.985 266.509 153.806 266.509 170.597C266.509 185.149 255.368 196.791 241.169 196.791Z" fill="white"/>
<path d="M371.145 155.822C371.145 178.434 353.232 196.792 331.169 196.792C320.683 196.792 310.635 192.762 303.207 185.15V234.851H291.193V104.777H303.207V116.419C310.635 109.031 320.683 104.777 331.169 104.777C353.232 104.777 371.145 123.359 371.145 145.971V155.822ZM359.13 145.971C359.13 130.076 346.46 117.314 331.169 117.314C315.877 117.314 303.207 130.076 303.207 145.971V155.822C303.207 171.493 315.877 184.478 331.169 184.478C346.46 184.478 359.13 171.493 359.13 155.822V145.971Z" fill="white"/>
<path d="M456.561 196.788V188.057C450.226 193.654 441.924 196.788 433.623 196.788H414.181C400.201 196.788 388.841 184.922 388.841 170.818C388.841 156.489 400.419 144.624 414.181 144.624H443.454C449.57 144.624 456.779 143.728 456.779 136.116C456.779 122.46 445.201 117.31 433.842 117.31H424.23C414.4 117.31 405.662 123.579 402.385 132.982L391.026 128.952C396.05 114.624 409.376 104.997 424.23 104.997H433.842C452.192 104.997 468.794 115.296 468.794 136.116V197.012H456.561V196.788ZM443.235 156.937H413.963C406.754 156.937 400.638 163.206 400.638 170.818C400.638 178.206 406.754 184.474 413.963 184.474H433.405C446.075 184.474 456.342 173.728 456.342 160.743V154.698C452.192 156.489 447.823 156.937 443.235 156.937Z" fill="white"/>
<path d="M555.516 133.658C550.929 123.807 541.099 117.314 530.395 117.314C515.103 117.314 502.433 130.3 502.433 145.971V155.822C502.433 171.493 515.103 184.478 530.395 184.478C541.099 184.478 550.929 178.21 555.516 167.911L566.439 173.284C559.885 187.613 545.905 196.568 530.176 196.568C508.113 196.568 490.2 178.21 490.2 155.598V145.747C490.2 123.135 508.113 104.777 530.176 104.777C545.686 104.777 559.667 113.732 566.439 128.061L555.516 133.658Z" fill="white"/>
<path d="M662.119 156.941H594.4C595.055 172.389 607.289 184.478 622.143 184.478C632.847 184.478 642.677 178.21 647.265 167.911L658.187 173.284C651.634 187.613 637.653 196.568 621.925 196.568C599.861 196.568 581.948 178.21 581.948 155.598V145.747C581.948 123.135 599.861 104.777 621.925 104.777C643.988 104.777 661.901 123.135 661.901 145.747V156.941H662.119ZM622.143 117.314C607.289 117.314 594.837 129.404 594.4 144.628H650.104C649.231 129.628 636.998 117.314 622.143 117.314Z" fill="white"/>
<path d="M776.15 196.789V133.654C776.15 123.356 768.286 117.311 758.893 117.311C750.373 117.311 743.164 124.699 743.164 133.654V197.012H730.931V133.654C730.931 123.356 723.067 117.311 713.674 117.311C704.936 117.311 697.727 124.699 697.727 133.654V197.012H685.712V105.222H697.727V110.371C703.188 106.341 708.431 105.222 714.984 105.222C723.285 105.222 731.586 109.252 736.829 115.968C742.727 108.132 750.81 105.222 759.985 105.222C775.495 105.222 787.946 117.983 787.946 133.878V197.236H776.15V196.789Z" fill="white"/>
<path d="M890.18 156.941H822.461C823.116 172.389 835.349 184.478 850.204 184.478C860.908 184.478 870.738 178.21 875.325 167.911L886.248 173.284C879.694 187.613 865.713 196.568 849.985 196.568C827.922 196.568 810.009 178.21 810.009 155.598V145.747C810.009 123.135 827.922 104.777 849.985 104.777C872.048 104.777 889.961 123.135 889.961 145.747V156.941H890.18ZM850.204 117.314C835.349 117.314 822.897 129.404 822.461 144.628H878.165C877.291 129.628 865.058 117.314 850.204 117.314Z" fill="white"/>
<path d="M963.798 196.791H943.264C927.972 196.791 914.865 186.717 910.059 172.612L921.637 168.582C924.695 177.761 933.215 184.478 943.264 184.478H963.798C971.006 184.478 977.123 178.209 977.123 170.597C977.123 161.866 968.167 159.627 958.773 158.284L939.768 155.373C926.88 153.582 909.186 149.329 909.186 130.747C909.186 116.418 920.545 104.553 934.526 104.553H955.06C970.351 104.553 983.458 114.627 988.045 128.732L976.686 132.761C973.409 123.582 965.108 117.09 955.06 117.09H934.526C927.317 117.09 921.2 123.135 921.2 130.747C921.2 140.373 932.778 142.164 941.953 143.508L960.084 145.97C974.065 147.761 989.138 153.582 989.138 170.373C989.138 185.149 977.997 196.791 963.798 196.791Z" fill="white"/>
<path d="M1081.76 196.79V145.969C1081.76 130.074 1069.09 117.312 1053.8 117.312C1038.51 117.312 1025.84 130.074 1025.84 145.969V196.79H1013.82V65.1484H1025.84V116.641C1033.26 109.253 1043.31 104.999 1053.8 104.999C1075.86 104.999 1093.77 123.357 1093.77 145.969V196.79H1081.76Z" fill="white"/>
<path d="M148.133 191.656L107.897 150.42L148.133 109.034H107.897L148.133 150.42L107.897 191.656H148.133Z" stroke="white" stroke-width="8" stroke-miterlimit="10" stroke-linejoin="bevel"/>
</svg>
