<svg fill="none" xmlns="http://www.w3.org/2000/svg" viewBox="0 0 20 20">
    <path d="M10.428.305A9.481 9.481 0 00.925 9.808a9.481 9.481 0 009.503 9.503 9.481 9.481 0 009.503-9.503A9.49 9.49 0 0010.428.305zm0 16.624A7.106 7.106 0 013.301 9.8a7.1 7.1 0 017.127-7.12 7.106 7.106 0 017.127 7.127 7.104 7.104 0 01-7.127 7.12z" fill="#0B87DA"/>
    <path d="M10.428 7.47c.664 0 1.175-.51 1.175-1.175 0-.664-.51-1.175-1.175-1.175-.664 0-1.175.51-1.175 1.175 0 .664.504 1.175 1.175 1.175zM12.005 12.178c-.23 0-.396-.154-.396-.358V8.665c0-.23-.191-.434-.396-.434H8.857c-.23 0-.396.23-.396.434v.798c0 .25.192.358.396.358.23 0 .396.23.396.434v1.578c0 .249-.192.357-.396.357-.23 0-.396.23-.396.435v.779c0 .249.192.357.396.357h3.174c.23 0 .396-.153.396-.357v-.799c-.026-.236-.217-.427-.421-.427z" fill="#0B87DA"/>
</svg>
